<mxfile host="app.diagrams.net" modified="2023-12-14T01:57:41.416Z" agent="Mozilla/5.0 (Windows NT 10.0; Win64; x64) AppleWebKit/537.36 (KHTML, like Gecko) Chrome/120.0.0.0 Safari/537.36" etag="3gbBS9JDebp6CbVVgCac" version="22.1.8" type="github">
  <diagram name="第 1 页" id="Gu2q-dA6P7NtXd901KdT">
    <mxGraphModel dx="1014" dy="514" grid="1" gridSize="10" guides="1" tooltips="1" connect="1" arrows="1" fold="1" page="1" pageScale="1" pageWidth="827" pageHeight="1169" math="0" shadow="0">
      <root>
        <mxCell id="0" />
        <mxCell id="1" parent="0" />
        <mxCell id="wkfzTNl6e1L-zpEMTxC8-3" style="edgeStyle=orthogonalEdgeStyle;rounded=0;orthogonalLoop=1;jettySize=auto;html=1;entryX=1;entryY=0.5;entryDx=0;entryDy=0;" edge="1" parent="1" source="wkfzTNl6e1L-zpEMTxC8-1" target="wkfzTNl6e1L-zpEMTxC8-2">
          <mxGeometry relative="1" as="geometry" />
        </mxCell>
        <mxCell id="wkfzTNl6e1L-zpEMTxC8-5" style="edgeStyle=orthogonalEdgeStyle;rounded=0;orthogonalLoop=1;jettySize=auto;html=1;entryX=0;entryY=0.5;entryDx=0;entryDy=0;" edge="1" parent="1" source="wkfzTNl6e1L-zpEMTxC8-1" target="wkfzTNl6e1L-zpEMTxC8-4">
          <mxGeometry relative="1" as="geometry" />
        </mxCell>
        <mxCell id="wkfzTNl6e1L-zpEMTxC8-1" value="Data Collector" style="rounded=1;whiteSpace=wrap;html=1;" vertex="1" parent="1">
          <mxGeometry x="240" y="270" width="130" height="70" as="geometry" />
        </mxCell>
        <mxCell id="wkfzTNl6e1L-zpEMTxC8-2" value="Data Source" style="rounded=1;whiteSpace=wrap;html=1;" vertex="1" parent="1">
          <mxGeometry x="40" y="180" width="120" height="60" as="geometry" />
        </mxCell>
        <mxCell id="wkfzTNl6e1L-zpEMTxC8-7" style="edgeStyle=orthogonalEdgeStyle;rounded=0;orthogonalLoop=1;jettySize=auto;html=1;" edge="1" parent="1" source="wkfzTNl6e1L-zpEMTxC8-4" target="wkfzTNl6e1L-zpEMTxC8-6">
          <mxGeometry relative="1" as="geometry" />
        </mxCell>
        <mxCell id="wkfzTNl6e1L-zpEMTxC8-4" value="AIGC 内容扩展处理" style="rounded=1;whiteSpace=wrap;html=1;" vertex="1" parent="1">
          <mxGeometry x="420" y="270" width="130" height="70" as="geometry" />
        </mxCell>
        <mxCell id="wkfzTNl6e1L-zpEMTxC8-9" value="" style="edgeStyle=orthogonalEdgeStyle;rounded=0;orthogonalLoop=1;jettySize=auto;html=1;" edge="1" parent="1" source="wkfzTNl6e1L-zpEMTxC8-6" target="wkfzTNl6e1L-zpEMTxC8-8">
          <mxGeometry relative="1" as="geometry" />
        </mxCell>
        <mxCell id="wkfzTNl6e1L-zpEMTxC8-6" value="文字转视频" style="rounded=1;whiteSpace=wrap;html=1;" vertex="1" parent="1">
          <mxGeometry x="580" y="270" width="130" height="70" as="geometry" />
        </mxCell>
        <mxCell id="wkfzTNl6e1L-zpEMTxC8-8" value="多平台发布" style="rounded=1;whiteSpace=wrap;html=1;" vertex="1" parent="1">
          <mxGeometry x="580" y="390" width="130" height="70" as="geometry" />
        </mxCell>
      </root>
    </mxGraphModel>
  </diagram>
</mxfile>
